<?xml version="1.0" standalone="no"?>
<!DOCTYPE svg PUBLIC "-//W3C//DTD SVG 20010904//EN"
 "http://www.w3.org/TR/2001/REC-SVG-20010904/DTD/svg10.dtd">
<svg version="1.0" xmlns="http://www.w3.org/2000/svg"
 width="512.000000pt" height="512.000000pt" viewBox="0 0 512.000000 512.000000"
 preserveAspectRatio="xMidYMid meet">
<g transform="translate(0.000000,512.000000) scale(0.100000,-0.100000)"
fill="#000000" stroke="none">
<path d="M2360 5026 c-111 -30 -220 -114 -270 -209 l-25 -47 -212 0 -212 0
-20 -26 c-12 -15 -21 -41 -21 -60 l0 -34 -377 0 c-334 0 -384 -2 -426 -17 -65
-23 -122 -74 -155 -137 l-27 -51 -3 -966 -2 -967 -120 -119 c-94 -93 -120
-124 -120 -145 0 -15 18 -67 39 -117 l39 -90 -44 -88 c-25 -49 -57 -126 -72
-172 l-27 -84 -90 -34 c-132 -50 -125 -37 -125 -230 0 -193 -5 -184 127 -233
l90 -35 26 -82 c14 -45 46 -123 71 -172 l45 -90 -39 -89 c-22 -50 -40 -102
-40 -117 0 -22 22 -50 101 -131 136 -138 135 -137 258 -84 l98 42 103 -51 c57
-27 134 -58 171 -68 l68 -17 37 -99 c21 -56 46 -104 58 -112 16 -12 55 -15
172 -15 184 0 183 -1 233 130 36 93 36 93 81 106 36 11 262 14 1191 14 1307 0
1205 -7 1296 87 87 89 83 45 83 912 l0 756 331 330 c369 368 379 381 379 495
0 84 -23 134 -97 212 -72 76 -136 108 -217 108 -107 0 -129 -12 -268 -148
l-128 -125 -2 744 -3 744 -27 50 c-34 64 -69 97 -138 129 l-55 26 -382 0 -383
0 0 34 c0 19 -9 45 -21 60 l-20 26 -212 0 -212 0 -25 47 c-31 58 -101 131
-160 166 -90 52 -222 70 -320 43z m211 -34 c15 -6 29 -8 32 -5 3 3 20 -5 36
-17 17 -12 31 -19 31 -15 0 3 10 -3 22 -14 11 -11 26 -18 31 -14 6 3 7 1 3 -5
-4 -7 0 -12 10 -12 10 0 14 -3 11 -6 -3 -4 12 -27 33 -52 22 -25 40 -51 40
-58 0 -7 9 -19 20 -27 11 -8 17 -17 14 -20 -4 -3 87 -5 202 -4 l209 2 22 -24
c16 -18 19 -29 13 -41 -7 -13 -3 -23 13 -38 22 -21 30 -22 396 -22 349 -1 376
-2 424 -21 62 -24 129 -92 146 -148 8 -27 11 -247 11 -759 0 -687 1 -721 19
-743 l18 -23 107 105 c59 57 111 106 116 107 6 2 8 8 4 13 -3 5 -1 9 5 9 5 0
13 -4 16 -10 3 -5 12 -10 18 -10 8 0 8 3 -2 9 -10 7 -9 11 8 23 11 8 18 17 15
21 -3 3 3 3 14 0 11 -3 28 -1 37 4 32 18 195 -23 195 -49 0 -4 6 -8 14 -8 16
0 58 -53 51 -64 -3 -3 -2 -4 1 -2 6 5 53 -41 55 -53 0 -3 2 -13 5 -21 27 -103
21 -171 -21 -226 -13 -17 -170 -177 -349 -357 l-326 -326 -1 -763 c0 -420 -3
-774 -5 -788 -2 -13 -11 -35 -20 -47 -18 -28 -104 -113 -115 -114 -14 -2 -29
-6 -31 -9 -5 -4 -63 -11 -98 -11 -19 -1 -524 0 -1122 0 -1059 1 -1145 -1
-1198 -29 -14 -7 -71 -130 -75 -160 -3 -24 -30 -50 -50 -50 -14 0 -25 -3 -25
-7 0 -5 -48 -7 -107 -6 -60 1 -120 2 -135 3 -18 0 -29 7 -33 20 -4 12 -11 17
-18 14 -7 -4 -9 -4 -5 1 4 4 2 17 -4 28 -6 12 -12 28 -13 37 -2 25 -41 104
-57 118 -8 6 -27 13 -42 14 -14 1 -26 6 -26 10 0 4 -8 6 -18 5 -10 0 -39 9
-65 22 -26 12 -53 24 -61 25 -8 1 -21 8 -29 15 -9 7 -22 14 -29 15 -32 7 -78
33 -71 41 5 4 4 6 -2 4 -118 -55 -182 -81 -203 -85 -19 -4 -44 16 -134 105
-124 124 -119 106 -61 231 19 41 35 84 35 96 0 11 -12 40 -27 64 -15 24 -28
48 -29 54 -2 6 -10 27 -18 47 -9 20 -26 68 -39 105 -27 82 -40 100 -88 115
-62 19 -151 62 -152 73 -1 6 -3 70 -4 143 -3 135 6 173 39 173 8 0 19 7 26 15
7 8 23 15 36 15 13 0 24 4 24 9 0 5 14 11 30 15 35 6 83 53 76 73 -3 7 -1 15
3 17 7 5 15 30 25 76 2 8 65 140 87 182 l20 37 -24 53 c-41 92 -62 142 -62
153 -1 5 17 28 40 49 22 22 33 36 25 32 -8 -4 -7 -1 4 6 28 20 93 82 76 74 -8
-4 -6 -1 5 8 11 8 37 30 57 48 l37 32 1 955 c0 968 2 1014 37 1054 9 9 12 17
7 17 -5 1 2 7 16 15 14 8 21 14 17 15 -5 0 -1 7 7 16 9 8 22 12 28 8 7 -4 10
-4 6 1 -7 7 64 46 80 44 4 -1 12 -1 17 0 6 1 175 1 377 1 l367 0 16 23 c8 13
13 31 10 39 -3 8 2 25 12 37 17 21 25 22 230 23 117 0 210 5 207 9 -3 5 -1 9
5 9 5 0 23 23 41 51 17 28 43 62 58 76 15 14 26 29 25 34 -2 5 0 8 5 7 11 -4
92 44 92 54 0 5 4 7 9 3 6 -3 24 0 41 7 37 15 183 15 221 0z"/>
<path d="M2390 4903 c-8 -3 -26 -10 -40 -16 -14 -6 -29 -9 -33 -8 -5 1 -6 -3
-2 -9 3 -5 -1 -10 -9 -10 -9 0 -16 -4 -16 -9 0 -5 -9 -13 -21 -16 -11 -4 -18
-9 -16 -12 3 -2 -5 -15 -18 -29 -12 -13 -33 -51 -45 -84 l-22 -60 -199 0
c-260 0 -239 19 -239 -223 0 -165 2 -186 18 -200 17 -16 81 -17 720 -17 698 0
701 0 715 21 12 16 15 60 16 199 1 239 20 221 -231 219 l-193 -2 -31 63 c-17
35 -38 72 -47 84 -10 11 -17 24 -17 28 0 4 -5 8 -10 8 -6 0 -20 9 -32 20 -39
36 -91 54 -163 57 -38 1 -77 0 -85 -4z m161 -38 c23 -9 58 -27 77 -42 38 -29
92 -108 92 -134 0 -10 11 -31 24 -46 l24 -28 201 0 201 0 0 -187 0 -188 -705
0 -705 0 0 188 0 187 187 -2 c203 -3 228 2 249 47 45 97 62 125 97 155 71 61
171 80 258 50z"/>
<path d="M2435 4761 c-61 -26 -79 -102 -33 -147 53 -54 139 -24 154 53 6 28 2
37 -29 68 -35 35 -55 41 -92 26z m20 -21 c-4 -6 6 -10 23 -10 45 0 52 -18 40
-97 -1 -7 -3 -11 -6 -8 -3 2 -12 1 -21 -4 -9 -4 -31 -4 -48 1 -30 8 -33 12
-33 45 0 24 8 45 22 60 22 24 34 30 23 13z"/>
<path d="M2726 4602 c-3 -5 1 -9 9 -9 8 0 12 4 9 9 -3 4 -7 8 -9 8 -2 0 -6 -4
-9 -8z"/>
<path d="M4039 4525 c-3 -2 -164 -5 -359 -5 -403 -1 -379 5 -379 -90 -1 -40 5
-62 19 -80 11 -14 20 -19 20 -11 0 10 3 11 14 2 11 -9 97 -12 321 -10 188 1
310 -2 316 -8 6 -6 10 -307 10 -823 l-1 -814 28 -18 27 -17 67 69 68 70 0 788
c0 446 -4 804 -10 827 -12 53 -76 113 -114 106 -5 -1 -12 3 -16 9 -3 5 -9 8
-11 5z m83 -73 l33 -32 3 -812 2 -812 -57 -58 c-32 -32 -60 -58 -63 -58 -3 0
-5 369 -5 821 l0 821 -28 24 -29 25 -324 -3 -324 -3 0 63 0 63 380 -3 380 -3
32 -33z"/>
<path d="M835 4508 c-11 -6 -34 -26 -51 -44 -18 -18 -34 -30 -38 -27 -3 3 -6
-443 -6 -991 l0 -998 29 -29 c16 -16 39 -29 50 -29 25 0 101 48 101 64 -1
1719 0 1855 21 1866 13 7 129 11 336 10 224 0 319 3 329 11 19 16 19 152 0
168 -19 16 -742 15 -771 -1z m765 -78 l0 -60 -324 0 -325 0 -28 -24 -28 -24
-3 -936 -2 -936 -31 -16 c-26 -13 -36 -13 -60 -4 l-29 13 2 987 3 988 25 27
c14 15 34 31 45 35 11 5 185 9 388 9 l367 1 0 -60z"/>
<path d="M910 4385 c-7 -8 -17 -12 -23 -8 -6 4 -7 1 -3 -6 6 -9 13 -8 27 5 10
9 19 19 19 21 0 7 -8 2 -20 -12z"/>
<path d="M1040 4220 c-20 -20 -20 -36 -20 -854 0 -753 2 -836 16 -851 9 -8 24
-14 33 -11 9 2 34 7 56 11 22 4 45 11 52 16 6 6 30 54 53 108 40 97 42 99 82
109 23 6 89 10 147 10 93 -1 109 -3 130 -22 13 -11 21 -15 16 -7 -6 10 -4 12
4 7 7 -5 10 -15 7 -23 -4 -9 -2 -11 5 -7 7 4 10 1 7 -7 -3 -8 3 -31 14 -51 10
-21 16 -38 13 -38 -2 0 4 -15 14 -32 l18 -33 914 -5 c990 -5 959 -4 938 -56
-4 -12 -6 -25 -3 -28 2 -3 1 -4 -3 -1 -3 3 -12 0 -18 -5 -9 -7 -203 -10 -566
-10 -488 0 -557 -2 -577 -15 -12 -9 -22 -21 -22 -26 0 -17 103 -118 113 -112
6 3 7 1 3 -5 -3 -6 -2 -13 3 -16 10 -7 0 -60 -17 -92 -6 -12 -8 -24 -5 -28 3
-3 2 -6 -3 -6 -16 0 -46 -96 -38 -122 4 -13 5 -24 3 -25 -2 0 8 -12 23 -26 15
-14 24 -28 21 -31 -8 -7 845 -7 874 0 13 4 20 10 17 15 -3 5 1 9 8 9 7 0 131
119 276 264 190 191 265 273 272 297 6 20 10 367 10 861 l0 828 -30 15 c-24
12 -76 15 -285 15 l-256 0 -25 -27 c-13 -14 -20 -29 -16 -32 11 -7 -2 -46 -17
-56 -6 -3 -370 -6 -809 -6 -438 1 -803 1 -810 1 -7 0 -10 5 -6 12 4 6 3 8 -4
4 -14 -9 -27 14 -23 42 1 13 -5 32 -14 42 -15 17 -38 18 -286 19 -256 1 -270
0 -289 -19z m560 -44 c0 -22 9 -45 24 -63 l24 -28 815 0 815 0 26 24 c19 18
26 35 26 63 l0 38 275 0 275 0 0 -848 0 -847 -278 -278 -277 -277 -429 2 -429
3 -22 35 -22 35 44 101 c52 121 51 123 -38 212 l-63 62 578 0 577 0 24 25 c30
29 32 74 6 106 l-19 24 -917 5 -917 5 -30 80 c-47 127 -43 125 -228 125 -119
0 -160 -3 -176 -14 -11 -8 -36 -54 -54 -103 -18 -48 -37 -92 -42 -97 -4 -6
-33 -17 -63 -27 l-55 -17 0 844 0 844 275 0 275 0 0 -34z"/>
<path d="M1385 3755 c-16 -15 -25 -36 -25 -55 0 -19 9 -40 25 -55 l24 -25
1056 0 1056 0 24 25 c33 32 33 78 0 110 l-24 25 -1056 0 -1056 0 -24 -25z
m2149 -21 c14 -36 6 -64 -20 -74 -16 -6 -413 -10 -1064 -10 -979 0 -1038 1
-1045 18 -16 39 -15 61 2 71 12 7 365 11 1070 11 942 -1 1052 -2 1057 -16z"/>
<path d="M1420 3173 c-59 -22 -79 -92 -37 -131 l23 -22 1060 0 1061 0 21 23
c40 42 24 105 -31 126 -29 11 -2068 15 -2097 4z m2090 -35 c0 -5 6 -8 14 -8
20 0 26 -36 9 -59 -14 -21 -14 -21 -1067 -21 l-1053 0 -19 22 c-10 12 -13 18
-5 13 11 -6 13 -4 7 10 -4 10 -1 24 8 34 13 14 113 16 1060 16 575 0 1046 -3
1046 -7z"/>
<path d="M4667 3097 c-22 -7 -35 -15 -31 -19 4 -5 1 -8 -8 -8 -8 0 -23 -10
-35 -22 -11 -13 -31 -33 -44 -44 -30 -28 -69 -74 -69 -82 1 -12 57 -82 62 -77
2 3 11 -6 18 -20 7 -13 22 -27 32 -31 10 -3 16 -10 13 -15 -4 -5 2 -9 11 -9
10 0 15 -3 11 -6 -6 -7 60 -74 74 -74 5 0 9 -4 9 -10 0 -5 5 -10 11 -10 5 0 7
5 4 10 -3 6 0 10 8 10 19 0 49 34 40 45 -5 4 -3 5 4 1 6 -3 19 4 27 16 9 12
16 18 16 13 0 -6 10 5 21 23 12 17 25 32 31 32 5 0 7 4 4 9 -3 5 1 14 9 21 17
14 20 76 6 112 -13 34 -121 138 -137 131 -8 -3 -14 0 -14 6 0 14 -24 13 -73
-2z m76 -31 c18 -7 53 -36 80 -64 42 -46 47 -56 47 -97 0 -43 -4 -50 -74 -123
l-75 -77 -109 108 -109 107 77 74 c43 41 89 76 102 79 12 2 24 5 26 6 1 0 17
-5 35 -13z"/>
<path d="M3833 2287 c-430 -430 -543 -548 -540 -565 2 -12 39 -59 83 -104 43
-45 78 -87 76 -92 -2 -6 0 -8 4 -3 4 4 18 -3 31 -15 21 -19 27 -21 44 -9 12 7
18 8 14 2 -17 -28 13 -6 40 29 17 21 35 39 40 40 12 0 40 41 37 53 -1 5 2 6 8
2 5 -3 13 1 16 9 3 9 12 16 19 16 13 0 30 28 26 43 -1 5 3 6 8 2 6 -3 16 3 23
15 7 11 17 20 23 20 5 1 24 19 40 40 17 21 35 39 40 40 6 1 24 19 40 40 17 21
35 39 41 40 12 0 29 29 25 43 -1 5 3 6 8 2 6 -3 16 3 23 15 7 11 18 20 24 20
12 0 29 28 25 43 -1 5 3 6 8 3 5 -4 17 4 25 16 9 12 16 18 16 13 0 -5 8 2 17
15 10 14 17 29 15 33 -1 5 2 6 7 3 5 -4 17 4 25 16 9 12 16 18 16 13 0 -5 8 2
17 15 10 14 17 29 15 33 -1 5 2 6 7 3 5 -4 17 4 25 16 9 12 16 18 16 13 0 -5
8 2 17 15 10 14 17 29 15 33 -1 5 2 6 7 3 5 -4 17 4 25 16 9 12 16 18 16 13 0
-5 8 2 17 15 10 14 17 29 15 33 -1 5 2 6 7 3 5 -4 17 4 25 16 9 12 16 18 16
13 0 -5 8 2 17 15 10 14 17 29 15 33 -1 5 2 6 7 3 5 -4 17 4 25 16 9 12 16 18
16 13 0 -5 8 2 17 15 10 14 17 29 15 33 -1 5 2 6 7 3 5 -4 17 4 25 16 9 12 16
18 16 13 0 -5 12 7 26 28 24 35 24 40 10 56 -9 10 -14 21 -11 24 3 4 3 5 0 3
-3 -2 -49 41 -103 95 -53 55 -103 99 -111 99 -8 0 -259 -244 -558 -543z m667
408 l105 -105 -540 -540 -540 -540 -107 107 -108 108 537 537 c296 296 540
538 543 538 3 0 52 -47 110 -105z"/>
<path d="M1348 2633 c-13 -15 -27 -45 -33 -73 -7 -28 -58 -120 -68 -121 -50
-3 -133 -27 -196 -57 -30 -14 -61 -25 -68 -25 -6 0 -10 -4 -7 -9 3 -4 -1 -8
-9 -8 -8 0 -31 -11 -51 -25 -21 -14 -34 -20 -30 -13 4 7 -2 5 -13 -5 -23 -20
-78 -20 -95 0 -6 7 -14 10 -19 7 -5 -3 -9 0 -9 5 0 6 -3 10 -7 9 -5 -1 -17 3
-28 9 -11 6 -34 14 -50 17 -27 6 -36 0 -88 -51 -63 -63 -64 -68 -28 -148 12
-27 25 -61 27 -75 2 -14 6 -35 9 -47 3 -13 1 -23 -5 -23 -6 0 -9 -4 -6 -9 4
-5 2 -11 -2 -13 -29 -11 -115 -218 -136 -328 -1 -3 -5 -11 -9 -17 -5 -7 -5
-13 0 -13 4 0 -4 -8 -17 -17 -14 -10 -27 -17 -30 -16 -3 0 -14 -4 -25 -10 -11
-6 -29 -12 -40 -14 -10 -2 -22 -7 -25 -11 -3 -4 -12 -8 -20 -10 -39 -9 -50
-33 -50 -114 0 -78 0 -78 33 -98 17 -11 40 -20 50 -20 9 0 17 -4 17 -10 0 -5
6 -10 13 -10 19 0 72 -27 86 -44 12 -14 22 -48 23 -76 2 -42 98 -252 128 -278
8 -8 9 -11 2 -7 -7 4 -4 -8 8 -29 11 -20 15 -36 10 -36 -6 0 -9 -3 -8 -7 1 -5
-4 -19 -11 -31 -7 -13 -10 -26 -7 -30 3 -3 -1 -14 -11 -24 -9 -10 -13 -18 -9
-18 4 0 0 -10 -8 -22 -20 -29 -20 -52 0 -72 8 -9 13 -16 10 -16 -3 0 13 -17
36 -38 24 -20 45 -39 48 -42 9 -10 51 -9 45 0 -3 6 1 7 9 4 9 -3 16 -1 16 5 0
6 3 10 8 9 13 -3 56 14 74 29 10 9 24 13 31 10 8 -3 19 -1 25 5 7 7 21 3 44
-15 18 -13 43 -28 56 -32 12 -3 22 -11 22 -17 0 -5 7 -7 16 -4 9 4 13 2 8 -5
-4 -7 -1 -10 7 -7 8 3 20 -2 27 -11 11 -13 12 -13 6 -1 -6 13 -5 13 12 -1 35
-28 130 -58 216 -68 8 -1 40 -58 45 -81 2 -8 5 -20 6 -26 2 -6 11 -23 21 -39
11 -17 13 -25 5 -20 -8 5 -3 -4 10 -18 22 -25 31 -27 102 -27 71 0 94 8 99 32
0 4 7 22 14 40 7 18 19 51 27 73 8 22 25 45 37 51 12 6 19 14 14 19 -4 5 -2 5
4 2 7 -4 27 -1 45 7 19 8 48 16 65 19 44 7 104 29 104 39 0 4 3 8 8 7 15 -2
52 14 52 22 0 5 3 8 8 7 4 -1 29 11 56 27 51 30 83 38 92 23 3 -4 10 -6 15 -3
5 4 9 2 9 -3 0 -5 15 -15 33 -22 17 -6 43 -17 57 -23 33 -14 72 -18 65 -6 -4
5 3 9 14 9 12 0 21 4 21 8 0 5 10 19 23 32 12 14 21 28 19 32 -1 5 7 8 18 8
11 0 20 5 20 11 0 5 -4 8 -9 5 -4 -3 -6 5 -4 18 3 13 -2 37 -11 55 -9 17 -16
32 -15 33 2 2 -4 14 -11 28 -8 14 -16 39 -18 55 -2 17 -5 32 -7 33 -2 2 15 34
38 70 23 37 48 78 55 92 18 37 52 152 52 177 0 12 5 25 10 28 6 3 10 15 10 25
0 10 5 22 12 26 7 5 8 3 3 -7 -7 -11 -6 -12 6 -3 26 22 91 55 84 44 -4 -6 16
0 44 14 l51 26 0 86 c0 58 -4 90 -14 99 -15 16 -82 45 -102 45 -8 0 -30 10
-49 23 -33 20 -46 46 -60 117 -12 58 -47 135 -131 290 -16 30 -11 59 27 131
41 80 38 100 -19 158 -27 27 -55 51 -63 52 -23 4 -89 -12 -89 -22 0 -5 -6 -9
-14 -9 -7 0 -31 -8 -52 -17 -44 -19 -68 -18 -92 3 -9 8 -21 14 -26 13 -5 0
-12 3 -15 9 -12 18 -158 82 -245 107 -87 25 -116 39 -116 56 0 4 -4 18 -9 31
-5 13 -9 26 -10 31 0 4 -12 30 -26 57 l-25 50 -79 0 c-62 0 -81 -4 -93 -17z
m196 -100 c17 -45 38 -90 47 -98 9 -9 52 -25 95 -36 80 -21 240 -91 293 -128
46 -33 75 -28 208 36 l41 20 52 -52 51 -52 -42 -96 -42 -96 26 -48 c65 -117
109 -219 129 -296 11 -45 27 -89 35 -99 8 -9 55 -31 104 -50 l89 -33 -2 -74
-3 -74 -82 -31 c-100 -38 -119 -55 -132 -116 -17 -81 -68 -209 -116 -290 -25
-42 -45 -81 -45 -87 0 -6 18 -52 41 -103 l41 -93 -50 -50 -50 -50 -86 38 c-46
20 -95 38 -108 38 -13 0 -60 -21 -104 -46 -87 -51 -179 -88 -266 -107 -71 -16
-87 -33 -126 -135 l-30 -80 -74 -3 -74 -3 -34 92 c-37 98 -49 112 -120 128
-98 22 -243 84 -312 133 -41 28 -73 25 -167 -16 l-84 -37 -53 52 -52 51 39 84
c22 47 39 94 39 106 0 12 -20 56 -45 98 -47 80 -93 196 -115 287 -6 29 -18 57
-26 63 -7 7 -52 27 -100 44 l-86 33 0 74 0 74 73 28 c129 48 116 33 164 192
26 87 73 189 114 250 29 41 26 67 -18 164 l-37 83 53 51 53 50 83 -37 c45 -20
92 -36 104 -36 13 0 62 23 110 50 51 30 130 63 188 81 168 51 153 37 210 192
l18 48 75 -3 75 -3 31 -82z"/>
<path d="M1275 2183 c-265 -56 -478 -248 -568 -512 -38 -111 -48 -287 -23
-396 38 -162 98 -269 220 -390 76 -76 107 -99 187 -138 495 -245 1059 74 1114
628 13 138 -29 317 -107 450 -49 83 -180 216 -261 264 -171 101 -373 135 -562
94z m323 -34 c53 -11 101 -25 107 -30 5 -5 16 -9 24 -9 8 0 23 -8 34 -17 11
-10 17 -12 13 -6 -8 15 106 -61 144 -95 14 -12 25 -28 25 -35 0 -6 8 -11 18
-9 9 2 17 -1 17 -5 0 -4 14 -24 30 -43 16 -19 34 -40 40 -47 6 -7 15 -24 22
-38 6 -14 15 -25 20 -25 4 0 7 -3 6 -7 -1 -5 6 -25 15 -46 9 -20 17 -39 17
-42 1 -2 8 -26 16 -52 22 -72 28 -119 28 -218 0 -109 -7 -147 -40 -239 -14
-39 -26 -76 -26 -83 -1 -7 -5 -10 -10 -7 -4 3 -8 0 -8 -6 0 -6 -11 -27 -25
-47 -13 -20 -21 -41 -18 -46 3 -6 1 -7 -5 -3 -7 4 -12 2 -12 -5 0 -22 -129
-142 -146 -135 -8 3 -12 2 -9 -4 3 -6 1 -10 -5 -10 -6 0 -9 -4 -5 -9 3 -5 -4
-12 -15 -16 -11 -3 -20 -11 -20 -17 0 -6 -3 -9 -6 -5 -4 3 -13 -1 -21 -9 -8
-8 -19 -12 -24 -9 -5 4 -9 2 -9 -3 0 -5 -26 -17 -57 -27 -32 -11 -64 -23 -71
-29 -7 -5 -15 -6 -18 -3 -3 3 -18 1 -33 -5 -41 -16 -218 -18 -286 -3 -103 24
-129 31 -162 49 -18 9 -36 17 -40 18 -5 1 -24 11 -43 22 -19 12 -39 20 -43 18
-5 -1 -6 2 -3 7 4 5 -3 12 -14 16 -11 4 -18 11 -15 16 4 5 2 9 -4 9 -6 0 -26
13 -44 30 -19 16 -37 26 -41 22 -4 -4 -6 -2 -4 4 2 6 -13 29 -32 50 -37 40
-51 62 -71 104 -6 14 -17 37 -25 51 -39 75 -72 226 -69 314 5 120 21 194 66
300 7 17 13 32 13 35 2 10 70 105 78 108 4 2 6 8 2 13 -3 5 0 9 6 9 6 0 8 5 4
12 -4 6 -3 8 3 5 12 -7 36 16 28 26 -3 4 -2 5 1 2 8 -6 34 21 34 35 0 6 3 9 8
6 4 -2 27 13 52 35 24 21 50 39 57 39 7 0 22 10 34 23 12 12 18 15 14 7 -6
-10 -2 -9 13 3 12 11 26 16 33 11 8 -4 10 -3 5 4 -7 12 -6 13 29 17 12 1 36 7
55 13 107 35 238 39 368 11z"/>
<path d="M1295 2053 c-27 -8 -56 -15 -62 -15 -7 -1 -13 -5 -13 -9 0 -4 -15
-10 -34 -13 -19 -4 -39 -13 -46 -21 -7 -8 -19 -15 -26 -15 -8 0 -14 -5 -14
-11 0 -5 -4 -8 -8 -5 -5 3 -30 -15 -56 -40 -26 -24 -53 -44 -59 -44 -5 0 -8
-3 -4 -6 3 -3 -4 -16 -16 -28 -56 -54 -112 -161 -138 -261 -21 -78 -24 -208
-8 -270 6 -22 11 -47 13 -55 1 -9 5 -21 10 -28 4 -6 4 -12 1 -12 -4 0 3 -14
15 -30 12 -17 19 -38 16 -46 -3 -8 -2 -12 4 -9 6 3 10 0 10 -9 0 -8 11 -28 25
-44 14 -17 25 -34 25 -40 0 -5 16 -24 35 -41 20 -17 33 -31 29 -31 -4 0 5 -9
19 -20 14 -11 30 -20 37 -20 6 0 8 -4 5 -10 -3 -5 -2 -10 3 -10 5 0 41 -18 79
-41 39 -22 80 -41 92 -42 11 -1 21 -5 21 -10 0 -5 10 -5 21 -2 12 4 19 3 16
-1 -7 -13 33 -17 148 -18 103 0 145 4 145 14 0 3 14 6 30 6 17 1 39 9 49 18
10 9 26 16 36 16 10 0 34 12 53 27 20 15 32 20 28 12 -4 -8 0 -5 9 6 9 11 17
18 19 15 9 -14 160 146 150 161 -3 5 -2 8 3 7 4 -2 9 2 11 7 2 6 10 17 18 26
8 9 11 19 7 22 -3 4 -2 7 4 7 6 0 23 33 38 73 23 60 29 92 33 192 4 104 1 131
-18 195 -27 91 -80 188 -131 242 -21 22 -37 45 -36 51 1 6 -4 11 -10 12 -7 0
-26 12 -42 28 -16 15 -32 27 -35 27 -4 0 -23 11 -44 25 -20 13 -68 36 -107 51
-59 22 -88 27 -185 29 -77 2 -131 -2 -165 -12z m267 -24 c176 -37 344 -170
422 -334 46 -96 61 -163 60 -275 -3 -440 -471 -728 -869 -536 -142 69 -264
203 -315 347 -31 88 -39 250 -16 339 55 218 226 394 437 450 84 21 202 25 281
9z"/>
<path d="M983 1777 c0 -16 34 -20 43 -5 4 7 2 8 -5 4 -6 -4 -18 -3 -25 3 -9 8
-13 7 -13 -2z"/>
<path d="M1926 1192 c-3 -5 1 -9 9 -9 8 0 12 4 9 9 -3 4 -7 8 -9 8 -2 0 -6 -4
-9 -8z"/>
<path d="M1980 2061 c0 -6 4 -13 10 -16 6 -3 7 1 4 9 -7 18 -14 21 -14 7z"/>
<path d="M2130 1826 c0 -2 8 -10 18 -17 15 -13 16 -12 3 4 -13 16 -21 21 -21
13z"/>
<path d="M2433 1535 c0 -8 4 -12 9 -9 5 3 6 10 3 15 -9 13 -12 11 -12 -6z"/>
<path d="M4073 1874 l-67 -66 -3 -547 c-2 -300 -4 -559 -3 -574 0 -16 -6 -30
-15 -32 -8 -3 -22 -7 -31 -10 -10 -3 -340 -5 -734 -5 l-717 0 -38 -46 c-21
-26 -49 -57 -62 -70 -33 -33 -18 -61 40 -69 23 -3 400 -5 837 -3 890 3 827 -2
880 76 l25 36 3 674 c2 689 2 702 -34 702 -8 0 -45 -30 -81 -66z m82 -1291
c-3 -19 -20 -44 -41 -62 l-35 -31 -836 0 -837 0 47 48 c26 26 47 53 47 60 0 9
166 12 739 12 l740 0 28 24 28 24 3 574 2 573 58 58 57 58 3 -653 c1 -359 0
-667 -3 -685z"/>
<path d="M2556 1829 c4 -8 3 -9 -5 -5 -19 12 -41 -14 -36 -43 11 -62 17 -81
26 -81 5 0 8 -5 7 -12 -3 -12 55 -45 89 -52 21 -3 69 -22 98 -37 19 -9 21 -21
23 -117 3 -128 6 -140 39 -153 54 -20 227 -5 243 22 5 6 18 51 30 98 49 191
85 306 97 314 18 11 16 41 -5 60 -15 14 -57 16 -315 17 -227 0 -297 -2 -291
-11z m590 -49 c-16 -18 -38 -82 -76 -222 l-53 -198 -114 0 -113 0 0 105 c0 57
-5 115 -11 129 -12 25 -38 39 -148 80 -63 23 -64 24 -81 77 l-16 54 317 0 318
0 -23 -25z"/>
<path d="M3864 1663 c4 -7 2 -13 -3 -13 -6 0 -79 -67 -162 -150 -85 -84 -159
-150 -169 -150 -11 0 -21 -4 -25 -9 -3 -6 -13 -10 -23 -10 -46 -2 -62 -6 -62
-15 0 -5 -2 -7 -5 -4 -3 3 -36 -3 -73 -14 -37 -11 -80 -22 -97 -25 -16 -3 -35
-9 -41 -14 -7 -5 -35 -12 -63 -16 -28 -3 -49 -8 -47 -12 2 -3 -97 -5 -221 -3
-220 3 -226 2 -278 -22 -43 -19 -56 -31 -60 -53 -4 -15 -14 -46 -22 -68 -8
-22 -17 -48 -18 -57 -2 -10 -21 -50 -42 -90 -21 -40 -38 -75 -39 -78 0 -3 -4
-13 -9 -23 -4 -11 -2 -30 5 -45 6 -15 11 -29 10 -32 -4 -15 108 -18 751 -19
l706 -1 17 33 c16 29 17 70 14 444 l-3 412 -24 23 c-13 13 -21 17 -17 11z m16
-458 l0 -435 -718 0 -718 0 -10 27 c-8 23 -3 39 31 103 21 41 54 117 71 169
31 93 33 95 75 112 37 15 77 18 263 18 l219 1 231 62 231 61 160 159 c88 87
161 158 163 158 1 0 2 -196 2 -435z"/>
<path d="M3216 1565 c-9 -13 -24 -56 -33 -94 -20 -86 -11 -106 46 -96 20 3 45
7 56 9 55 8 105 36 105 58 0 12 -134 148 -147 148 -6 0 -18 -11 -27 -25z m86
-61 c36 -36 61 -67 55 -69 -29 -9 -162 -43 -163 -42 -1 2 40 177 42 177 0 0
30 -30 66 -66z"/>
<path d="M885 330 c-3 -6 1 -7 9 -4 18 7 21 14 7 14 -6 0 -13 -4 -16 -10z"/>
</g>
</svg>
